<svg xmlns="http://www.w3.org/2000/svg" viewBox="0 0 667 571.23">
  <title>big-meter</title>
  <g>
    <g>
      <rect x="433.42" y="41.2" width="40" height="5.27" transform="translate(239.42 445.97) rotate(-67.5)"/>
      <rect x="91.87" y="552.59" width="40" height="5.27" transform="translate(-359.84 241.72) rotate(-45)"/>
      <rect x="535.14" y="109.14" width="40" height="5.27" transform="translate(83.56 425.28) rotate(-45)"/>
      <rect x="23.89" y="450.9" width="40" height="5.27" transform="translate(-170.2 51.31) rotate(-22.5)"/>
      <rect x="603.11" y="210.84" width="40" height="5.27" transform="translate(-34.26 254.79) rotate(-22.51)"/>
      <rect y="330.93" width="40" height="5.27"/>
      <rect x="627" y="330.8" width="40" height="5.27"/>
      <rect x="41.2" y="193.59" width="5.27" height="40" transform="translate(-170.27 172.35) rotate(-67.5)"/>
      <rect x="620.53" y="433.42" width="5.27" height="40" transform="translate(-34.22 855.62) rotate(-67.5)"/>
      <rect x="109.14" y="91.87" width="5.27" height="40" transform="translate(-46.36 111.8) rotate(-45)"/>
      <rect x="552.59" y="535.14" width="5.27" height="40" transform="translate(-229.92 555.2) rotate(-45)"/>
      <rect x="210.84" y="23.89" width="5.27" height="40" transform="translate(-0.55 85.03) rotate(-22.5)"/>
      <polygon points="336.07 0 330.8 0 330.8 18.5 330.8 40 336.07 40 336.07 0"/>
    </g>
    <g>
      <rect x="281.79" y="3.98" width="2.21" height="20" transform="translate(1.3 44.43) rotate(-9)"/>
      <rect x="307.02" y="1" width="2.21" height="20" transform="translate(0.09 24.2) rotate(-4.5)"/>
    </g>
  </g>
</svg>
