<svg xmlns="http://www.w3.org/2000/svg" viewBox="0 0 665.18 550.32">
  <defs>
    <style>
      .a {
        fill: none;
        stroke: #000;
        stroke-miterlimit: 10;
        stroke-width: 3px;
      }
    </style>
  </defs>
  <title>small-meter</title>
  <g>
    <line class="a" x1="357.19" y1="20.06" x2="358.76" y2="0.12"/>
    <line class="a" x1="381.63" y1="22.95" x2="384.76" y2="3.2"/>
    <line class="a" x1="405.77" y1="27.75" x2="410.44" y2="8.3"/>
    <line class="a" x1="429.47" y1="34.43" x2="435.65" y2="15.41"/>
    <line class="a" x1="474.92" y1="53.26" x2="484" y2="35.44"/>
    <line class="a" x1="496.39" y1="65.29" x2="506.84" y2="48.23"/>
    <line class="a" x1="516.86" y1="78.96" x2="528.62" y2="62.78"/>
    <line class="a" x1="536.19" y1="94.2" x2="549.18" y2="78.99"/>
    <line class="a" x1="78.99" y1="549.18" x2="94.2" y2="536.19"/>
    <line class="a" x1="570.98" y1="128.99" x2="586.19" y2="116"/>
    <line class="a" x1="62.78" y1="528.62" x2="78.96" y2="516.86"/>
    <line class="a" x1="586.22" y1="148.32" x2="602.4" y2="136.56"/>
    <line class="a" x1="48.23" y1="506.84" x2="65.29" y2="496.39"/>
    <line class="a" x1="599.89" y1="168.79" x2="616.95" y2="158.34"/>
    <line class="a" x1="35.44" y1="484" x2="53.26" y2="474.92"/>
    <line class="a" x1="611.92" y1="190.26" x2="629.74" y2="181.18"/>
    <line class="a" x1="15.41" y1="435.65" x2="34.43" y2="429.47"/>
    <line class="a" x1="630.75" y1="235.71" x2="649.77" y2="229.53"/>
    <line class="a" x1="8.3" y1="410.44" x2="27.75" y2="405.77"/>
    <line class="a" x1="637.43" y1="259.4" x2="656.87" y2="254.74"/>
    <line class="a" x1="3.2" y1="384.76" x2="22.95" y2="381.63"/>
    <line class="a" x1="642.23" y1="283.55" x2="661.98" y2="280.42"/>
    <line class="a" x1="0.12" y1="358.76" x2="20.06" y2="357.19"/>
    <line class="a" x1="645.12" y1="307.99" x2="665.06" y2="306.42"/>
    <line class="a" x1="0.12" y1="306.42" x2="20.06" y2="307.99"/>
    <line class="a" x1="645.12" y1="357.19" x2="665.06" y2="358.76"/>
    <line class="a" x1="3.2" y1="280.42" x2="22.95" y2="283.55"/>
    <line class="a" x1="642.23" y1="381.63" x2="661.98" y2="384.76"/>
    <line class="a" x1="8.3" y1="254.74" x2="27.75" y2="259.4"/>
    <line class="a" x1="637.43" y1="405.77" x2="656.87" y2="410.44"/>
    <line class="a" x1="15.41" y1="229.53" x2="34.43" y2="235.71"/>
    <line class="a" x1="630.75" y1="429.47" x2="649.77" y2="435.65"/>
    <line class="a" x1="35.44" y1="181.18" x2="53.26" y2="190.26"/>
    <line class="a" x1="611.92" y1="474.92" x2="629.74" y2="484"/>
    <line class="a" x1="48.23" y1="158.34" x2="65.29" y2="168.79"/>
    <line class="a" x1="599.89" y1="496.39" x2="616.95" y2="506.84"/>
    <line class="a" x1="62.78" y1="136.56" x2="78.96" y2="148.32"/>
    <line class="a" x1="586.22" y1="516.86" x2="602.4" y2="528.62"/>
    <line class="a" x1="78.99" y1="116" x2="94.2" y2="128.99"/>
    <line class="a" x1="570.98" y1="536.19" x2="586.19" y2="549.18"/>
    <line class="a" x1="116" y1="78.99" x2="128.99" y2="94.2"/>
    <line class="a" x1="136.56" y1="62.78" x2="148.32" y2="78.96"/>
    <line class="a" x1="158.34" y1="48.23" x2="168.79" y2="65.29"/>
    <line class="a" x1="181.18" y1="35.44" x2="190.26" y2="53.26"/>
    <line class="a" x1="229.53" y1="15.41" x2="235.71" y2="34.43"/>
    <line class="a" x1="254.74" y1="8.3" x2="259.4" y2="27.75"/>
    <line class="a" x1="280.42" y1="3.2" x2="283.55" y2="22.95"/>
    <line class="a" x1="306.42" y1="0.12" x2="307.99" y2="20.06"/>
  </g>
</svg>
