<svg xmlns="http://www.w3.org/2000/svg" viewBox="0 0 665.12 569.16">
  <title>smol-meter</title>
  <g>
    <rect x="347.94" y="8.95" width="20" height="2.21" transform="translate(319.87 366.11) rotate(-85.51)"/>
    <rect x="373.16" y="11.94" width="20" height="2.2" transform="matrix(0.16, -0.99, 0.99, 0.16, 310.38, 389.46)"/>
    <rect x="398.08" y="16.89" width="20" height="2.21" transform="translate(295.35 410.61) rotate(-76.51)"/>
    <rect x="422.53" y="23.79" width="20" height="2.21" transform="translate(275.18 428.55) rotate(-72)"/>
    <rect x="469.42" y="43.22" width="20" height="2.21" transform="translate(222.31 451.39) rotate(-63)"/>
    <rect x="491.59" y="55.63" width="20" height="2.21" transform="translate(191.18 454.79) rotate(-58.51)"/>
    <rect x="512.71" y="69.74" width="20" height="2.21" transform="translate(158.17 452.1) rotate(-54)"/>
    <rect x="532.65" y="85.46" width="20" height="2.21" transform="translate(124.44 443.03) rotate(-49.51)"/>
    <rect x="76.57" y="541.55" width="20" height="2.21" transform="translate(-331.65 186.19) rotate(-40.49)"/>
    <rect x="568.55" y="121.36" width="20" height="2.2" transform="matrix(0.76, -0.65, 0.65, 0.76, 59.04, 405)"/>
    <rect x="60.84" y="521.6" width="20" height="2.21" transform="translate(-293.69 141.45) rotate(-36)"/>
    <rect x="584.28" y="141.31" width="20" height="2.21" transform="translate(29.84 376.63) rotate(-36.01)"/>
    <rect x="46.73" y="500.48" width="20" height="2.21" transform="translate(-253.68 103.53) rotate(-31.49)"/>
    <rect x="598.39" y="162.43" width="20" height="2.21" transform="translate(4.19 341.92) rotate(-31.49)"/>
    <rect x="34.32" y="478.32" width="20" height="2.21" transform="translate(-212.8 72.36) rotate(-27)"/>
    <rect x="610.8" y="184.59" width="20" height="2.21" transform="translate(-16.6 302.29) rotate(-27.02)"/>
    <rect x="14.89" y="431.42" width="20" height="2.21" transform="translate(-132.45 28.87) rotate(-18)"/>
    <rect x="630.23" y="231.49" width="20" height="2.21" transform="translate(-40.54 209.25) rotate(-18)"/>
    <rect x="8" y="406.98" width="20" height="2.21" transform="translate(-94.73 15.47) rotate(-13.49)"/>
    <rect x="637.12" y="255.94" width="20" height="2.21" transform="translate(-42.16 158.4) rotate(-13.52)"/>
    <rect x="3.04" y="382.06" width="20" height="2.2" transform="translate(-59.75 6.75) rotate(-9)"/>
    <rect x="642.08" y="280.85" width="20" height="2.21" transform="translate(-36.13 105.67) rotate(-9.02)"/>
    <rect x="0.06" y="356.84" width="20" height="2.21" transform="translate(-28.02 1.89) rotate(-4.49)"/>
    <rect x="645.06" y="306.07" width="20" height="2.21" transform="translate(-22.17 52.57) rotate(-4.52)"/>
    <rect x="8.95" y="297.18" width="2.21" height="20" transform="translate(-296.96 293.11) rotate(-85.5)"/>
    <rect x="653.96" y="347.94" width="2.21" height="20" transform="translate(246.82 982.9) rotate(-85.5)"/>
    <rect x="11.94" y="271.95" width="2.21" height="20" transform="translate(-267.48 250.72) rotate(-81)"/>
    <rect x="650.97" y="373.16" width="2.21" height="20" transform="matrix(0.16, -0.99, 0.99, 0.16, 171.62, 967.27)"/>
    <rect x="16.89" y="247.04" width="2.21" height="20" transform="translate(-236.14 214.53) rotate(-76.5)"/>
    <rect x="646.02" y="398.08" width="2.21" height="20" transform="translate(99.25 942.05) rotate(-76.5)"/>
    <rect x="23.79" y="222.59" width="2.21" height="20" transform="translate(-204.01 184.39) rotate(-72)"/>
    <rect x="639.12" y="422.53" width="2.21" height="20" transform="matrix(0.31, -0.95, 0.95, 0.31, 31.02, 907.75)"/>
    <rect x="630.33" y="446.36" width="2.2" height="20" transform="translate(-31.82 865.1) rotate(-67.5)"/>
    <rect x="43.22" y="175.69" width="2.21" height="20" transform="translate(-141.26 140.88) rotate(-63)"/>
    <rect x="55.63" y="153.53" width="2.21" height="20" transform="translate(-112.34 126.45) rotate(-58.5)"/>
    <rect x="607.28" y="491.59" width="2.21" height="20" transform="matrix(0.52, -0.85, 0.85, 0.52, -137.16, 758.27)"/>
    <rect x="69.74" y="132.41" width="2.21" height="20" transform="translate(-86.01 116.01) rotate(-54)"/>
    <rect x="593.17" y="512.71" width="2.21" height="20" transform="translate(-177.91 696.25) rotate(-54)"/>
    <rect x="85.46" y="112.46" width="2.21" height="20" transform="translate(-62.77 108.76) rotate(-49.5)"/>
    <rect x="577.45" y="532.65" width="2.21" height="20" transform="translate(-209.83 630.15) rotate(-49.5)"/>
    <rect x="560.2" y="551.31" width="2.21" height="20" transform="translate(-232.5 561.31) rotate(-45)"/>
    <rect x="121.36" y="76.57" width="2.21" height="20" transform="translate(-26.88 100.27) rotate(-40.5)"/>
    <rect x="141.31" y="60.84" width="2.21" height="20" transform="translate(-14.44 97.24) rotate(-36)"/>
    <rect x="162.43" y="46.73" width="2.21" height="20" transform="translate(-5.54 93.81) rotate(-31.5)"/>
    <rect x="184.59" y="34.32" width="2.21" height="20" transform="translate(0.12 89.13) rotate(-27)"/>
    <rect x="231.49" y="14.89" width="2.21" height="20" transform="translate(3.69 73.09) rotate(-18)"/>
    <rect x="255.94" y="8" width="2.21" height="20" transform="translate(2.9 60.5) rotate(-13.5)"/>
    <rect x="280.85" y="3.04" width="2.21" height="20" transform="translate(1.43 44.27) rotate(-9)"/>
    <rect x="306.07" y="0.06" width="2.21" height="20" transform="translate(0.16 24.13) rotate(-4.5)"/>
  </g>
</svg>
