<svg width="600" height="600" viewBox="0 0 600 600" fill="none" xmlns="http://www.w3.org/2000/svg">
<g id="odometer" clip-path="url(#clip0)">
<rect width="600" height="600" fill="#090809"/>
<g id="red-circle">
<path id="Vector" d="M119.47 115.701C167.651 68.5748 232.38 42.2059 299.775 42.2493C442.332 42.2493 558.307 158.228 558.307 300.789C558.307 443.35 442.332 559.329 299.775 559.329C232.414 559.362 167.718 533.014 119.545 485.93L117.873 487.602C167.253 535.4 233.506 561.772 302.225 560.983C370.945 560.194 436.574 532.309 484.845 483.39C533.116 434.472 560.125 368.475 560 299.749C559.874 231.023 532.624 165.126 484.175 116.384C435.686 67.887 370.043 40.4463 301.466 40.0055C232.889 39.5647 166.899 66.1592 117.79 114.028L119.47 115.701Z" fill="#FF0000"/>
<path id="Vector_2" d="M116.703 483.162C68.3918 434.779 41.2527 369.203 41.2428 300.83C41.233 232.456 68.3532 166.873 116.65 118.476L114.97 116.796C66.3028 165.678 38.9859 231.852 39 300.831C39.014 369.81 66.3579 435.973 115.045 484.835L116.703 483.162Z" fill="#090809"/>
</g>
<rect id="pseudo" y="482" width="600" height="82" fill="#090809"/>
<g id="overtangle">
<g id="bottom">
<path id="Vector_3" d="M491.412 491.719C596.293 386.46 596.193 216.063 491.065 110.935C385.937 5.80682 215.54 5.70731 110.281 110.588L491.412 491.719Z" fill="#FF0000"/>
</g>
<g id="right-overtangle">
<path id="Vector_4" d="M299.797 301.503L109.581 111.288C4.80528 216.442 4.79985 386.553 109.585 491.715L299.797 301.503Z" fill="#FF0000"/>
</g>
<g id="left-overtangle">
<path id="Vector_5" d="M300.497 302.203L110.285 492.415C215.44 597.193 385.558 597.195 490.712 492.419L300.497 302.203Z" fill="#FF0000"/>
</g>
</g>
<g id="big-gauge">
<path id="Vector_6" d="M395.132 66.1159L383.501 94.1807L387.201 95.7123L398.832 67.6474L395.132 66.1159Z" fill="white"/>
<path id="Vector_7" d="M140.946 457.1L119.454 478.58L122.286 481.41L143.777 459.93L140.946 457.1Z" fill="white"/>
<path id="Vector_8" d="M477.761 120.322L456.27 141.802L459.101 144.632L480.592 123.152L477.761 120.322Z" fill="white"/>
<path id="Vector_9" d="M93.2515 384.326L65.1721 395.951L66.7044 399.648L94.7839 388.023L93.2515 384.326Z" fill="white"/>
<path id="Vector_10" d="M533.349 202.004L505.272 213.634L506.805 217.331L534.882 205.701L533.349 202.004Z" fill="white"/>
<path id="Vector_11" d="M77.0145 298.914H46.6215V302.916H77.0145V298.914Z" fill="white"/>
<path id="Vector_12" d="M553.425 298.815H523.032V302.818H553.425V298.815Z" fill="white"/>
<path id="Vector_13" d="M66.6576 202.136L65.1253 205.833L93.2047 217.458L94.7371 213.761L66.6576 202.136Z" fill="white"/>
<path id="Vector_14" d="M506.836 384.258L505.303 387.955L533.383 399.58L534.915 395.882L506.836 384.258Z" fill="white"/>
<path id="Vector_15" d="M122.226 120.4L119.394 123.23L140.885 144.71L143.717 141.88L122.226 120.4Z" fill="white"/>
<path id="Vector_16" d="M459.161 457.022L456.33 459.852L477.821 481.332L480.653 478.502L459.161 457.022Z" fill="white"/>
<path id="Vector_17" d="M204.86 66.1261L201.161 67.6576L212.792 95.7225L216.491 94.1909L204.86 66.1261Z" fill="white"/>
<path id="Vector_18" d="M301.976 47.5962H297.972V61.6456V77.9734H301.976V47.5962Z" fill="white"/>
</g>
<g id="meter-gauge">
<path id="Vector_19" d="M302.546 40.0019H297.493V300.866H302.546V40.0019Z" fill="white"/>
</g>
<g id="range-gauge">
<path id="Vector_20" d="M369.687 300.627C369.687 339.08 338.498 370.254 300.023 370.254C261.548 370.254 230.359 339.08 230.359 300.627C230.359 262.174 261.548 231 300.023 231C338.498 231 369.687 262.174 369.687 300.627Z" fill="#090809" stroke="white" stroke-width="2"/>
</g>
<g id="gear">
<g id="g0">
<path id="0" d="M299.84 352.16C298.627 352.16 297.767 351.987 297.26 351.64C296.753 351.28 296.427 350.647 296.28 349.74C296.133 348.82 296.06 347.28 296.06 345.12C296.06 342.96 296.133 341.427 296.28 340.52C296.427 339.6 296.753 338.967 297.26 338.62C297.767 338.26 298.627 338.08 299.84 338.08C301.08 338.08 301.953 338.26 302.46 338.62C302.967 338.967 303.287 339.587 303.42 340.48C303.553 341.36 303.62 342.907 303.62 345.12C303.62 347.28 303.547 348.82 303.4 349.74C303.253 350.647 302.927 351.28 302.42 351.64C301.913 351.987 301.053 352.16 299.84 352.16ZM299.84 350.84C300.6 350.84 301.12 350.74 301.4 350.54C301.693 350.34 301.887 349.873 301.98 349.14C302.073 348.393 302.12 347.053 302.12 345.12C302.12 343.187 302.073 341.853 301.98 341.12C301.887 340.373 301.693 339.9 301.4 339.7C301.12 339.5 300.6 339.4 299.84 339.4C299.067 339.4 298.533 339.5 298.24 339.7C297.96 339.9 297.773 340.367 297.68 341.1C297.6 341.833 297.56 343.173 297.56 345.12C297.56 347.067 297.6 348.407 297.68 349.14C297.773 349.873 297.96 350.34 298.24 350.54C298.533 350.74 299.067 350.84 299.84 350.84Z" fill="white"/>
</g>
<g id="g1">
<path id="1" d="M299.48 352V340.06L297.56 341.02V339.62L299.9 338.24H300.98V352H299.48Z" fill="white"/>
</g>
<g id="g2">
<path id="2" d="M298.38 350.68H303.8V352H296.92V350.42C296.92 349.26 296.947 348.433 297 347.94C297.053 347.433 297.193 347.02 297.42 346.7C297.647 346.367 298.033 346.047 298.58 345.74C299.047 345.447 299.913 344.927 301.18 344.18C301.647 343.913 301.947 343.613 302.08 343.28C302.227 342.947 302.3 342.433 302.3 341.74C302.3 341.073 302.233 340.58 302.1 340.26C301.98 339.927 301.76 339.7 301.44 339.58C301.133 339.46 300.667 339.4 300.04 339.4C299.293 339.4 298.32 339.473 297.12 339.62V338.4C297.52 338.307 298.027 338.233 298.64 338.18C299.267 338.113 299.86 338.08 300.42 338.08C301.167 338.08 301.773 338.16 302.24 338.32C302.72 338.467 303.1 338.793 303.38 339.3C303.66 339.807 303.8 340.56 303.8 341.56C303.8 342.32 303.74 342.933 303.62 343.4C303.513 343.853 303.333 344.227 303.08 344.52C302.84 344.8 302.5 345.067 302.06 345.32L299.2 346.98C298.88 347.167 298.667 347.38 298.56 347.62C298.48 347.793 298.427 348.033 298.4 348.34C298.387 348.633 298.38 349.08 298.38 349.68V350.68Z" fill="white"/>
</g>
<g id="g3">
<path id="3" d="M299.62 352.16C299.18 352.16 298.68 352.127 298.12 352.06C297.56 352.007 297.053 351.933 296.6 351.84V350.62C297.8 350.767 298.76 350.84 299.48 350.84C300.08 350.84 300.553 350.78 300.9 350.66C301.247 350.54 301.507 350.3 301.68 349.94C301.867 349.58 301.96 349.04 301.96 348.32C301.96 347.347 301.82 346.667 301.54 346.28C301.26 345.88 300.78 345.68 300.1 345.68H298.3V344.38H300.1C300.647 344.38 301.073 344.207 301.38 343.86C301.687 343.5 301.84 342.847 301.84 341.9C301.84 341.18 301.76 340.647 301.6 340.3C301.44 339.94 301.187 339.7 300.84 339.58C300.493 339.46 299.993 339.4 299.34 339.4C298.953 339.4 298.507 339.427 298 339.48C297.507 339.52 297.06 339.573 296.66 339.64V338.4C297.087 338.307 297.58 338.233 298.14 338.18C298.7 338.113 299.2 338.08 299.64 338.08C300.573 338.08 301.307 338.207 301.84 338.46C302.387 338.7 302.773 339.087 303 339.62C303.24 340.14 303.36 340.833 303.36 341.7C303.36 342.673 303.207 343.413 302.9 343.92C302.607 344.427 302.167 344.76 301.58 344.92V345C302.207 345.147 302.673 345.473 302.98 345.98C303.3 346.473 303.46 347.253 303.46 348.32C303.46 349.2 303.353 349.913 303.14 350.46C302.94 351.007 302.56 351.427 302 351.72C301.44 352.013 300.647 352.16 299.62 352.16Z" fill="white"/>
</g>
<g id="g4">
<path id="4" d="M300.74 352V348.74H295.64V347.56L299.28 338.24H300.86L297.22 347.42H300.76L301.04 342.32H302.24V347.42H303.68V348.74H302.24V352H300.74Z" fill="white"/>
</g>
</g>
<g id="small-gauge">
<path id="Vector_21" d="M318.715 63.5214L319.908 48.3784" stroke="white" stroke-opacity="0.5" stroke-width="3" stroke-miterlimit="10"/>
<path id="Vector_22" d="M337.285 65.7162L339.663 50.7174" stroke="white" stroke-opacity="0.5" stroke-width="3" stroke-miterlimit="10"/>
<path id="Vector_23" d="M355.635 69.3614L359.176 54.5905" stroke="white" stroke-opacity="0.5" stroke-width="3" stroke-miterlimit="10"/>
<path id="Vector_24" d="M373.635 74.4344L378.331 59.9901" stroke="white" stroke-opacity="0.5" stroke-width="3" stroke-miterlimit="10"/>
<path id="Vector_25" d="M408.169 88.7345L415.068 75.2014" stroke="white" stroke-opacity="0.5" stroke-width="3" stroke-miterlimit="10"/>
<path id="Vector_26" d="M424.483 97.8704L432.423 84.9145" stroke="white" stroke-opacity="0.5" stroke-width="3" stroke-miterlimit="10"/>
<path id="Vector_27" d="M440.036 108.252L448.972 95.9642" stroke="white" stroke-opacity="0.5" stroke-width="3" stroke-miterlimit="10"/>
<path id="Vector_28" d="M454.724 119.825L464.594 108.275" stroke="white" stroke-opacity="0.5" stroke-width="3" stroke-miterlimit="10"/>
<path id="Vector_29" d="M107.331 465.351L118.888 455.486" stroke="white" stroke-opacity="0.5" stroke-width="3" stroke-miterlimit="10"/>
<path id="Vector_30" d="M481.158 146.246L492.715 136.381" stroke="white" stroke-opacity="0.5" stroke-width="3" stroke-miterlimit="10"/>
<path id="Vector_31" d="M95.0147 449.737L107.309 440.806" stroke="white" stroke-opacity="0.5" stroke-width="3" stroke-miterlimit="10"/>
<path id="Vector_32" d="M492.738 160.926L505.032 151.995" stroke="white" stroke-opacity="0.5" stroke-width="3" stroke-miterlimit="10"/>
<path id="Vector_33" d="M83.9593 433.196L96.9219 425.26" stroke="white" stroke-opacity="0.5" stroke-width="3" stroke-miterlimit="10"/>
<path id="Vector_34" d="M503.124 176.471L516.087 168.535" stroke="white" stroke-opacity="0.5" stroke-width="3" stroke-miterlimit="10"/>
<path id="Vector_35" d="M74.2411 415.851L87.7812 408.955" stroke="white" stroke-opacity="0.5" stroke-width="3" stroke-miterlimit="10"/>
<path id="Vector_36" d="M512.265 192.776L525.805 185.881" stroke="white" stroke-opacity="0.5" stroke-width="3" stroke-miterlimit="10"/>
<path id="Vector_37" d="M59.0218 379.133L73.4737 374.439" stroke="white" stroke-opacity="0.5" stroke-width="3" stroke-miterlimit="10"/>
<path id="Vector_38" d="M526.573 227.292L541.025 222.599" stroke="white" stroke-opacity="0.5" stroke-width="3" stroke-miterlimit="10"/>
<path id="Vector_39" d="M53.6194 359.987L68.398 356.448" stroke="white" stroke-opacity="0.5" stroke-width="3" stroke-miterlimit="10"/>
<path id="Vector_40" d="M531.648 245.283L546.427 241.744" stroke="white" stroke-opacity="0.5" stroke-width="3" stroke-miterlimit="10"/>
<path id="Vector_41" d="M49.7443 340.485L64.7509 338.108" stroke="white" stroke-opacity="0.5" stroke-width="3" stroke-miterlimit="10"/>
<path id="Vector_42" d="M535.296 263.623L550.302 261.246" stroke="white" stroke-opacity="0.5" stroke-width="3" stroke-miterlimit="10"/>
<path id="Vector_43" d="M47.4041 320.74L62.555 319.548" stroke="white" stroke-opacity="0.5" stroke-width="3" stroke-miterlimit="10"/>
<path id="Vector_44" d="M537.491 282.184L552.642 280.992" stroke="white" stroke-opacity="0.5" stroke-width="3" stroke-miterlimit="10"/>
<path id="Vector_45" d="M47.4041 280.992L62.555 282.184" stroke="white" stroke-opacity="0.5" stroke-width="3" stroke-miterlimit="10"/>
<path id="Vector_46" d="M537.491 319.548L552.642 320.74" stroke="white" stroke-opacity="0.5" stroke-width="3" stroke-miterlimit="10"/>
<path id="Vector_47" d="M49.7443 261.246L64.7509 263.623" stroke="white" stroke-opacity="0.5" stroke-width="3" stroke-miterlimit="10"/>
<path id="Vector_48" d="M535.296 338.108L550.302 340.485" stroke="white" stroke-opacity="0.5" stroke-width="3" stroke-miterlimit="10"/>
<path id="Vector_49" d="M53.6194 241.744L68.398 245.283" stroke="white" stroke-opacity="0.5" stroke-width="3" stroke-miterlimit="10"/>
<path id="Vector_50" d="M531.648 356.448L546.427 359.987" stroke="white" stroke-opacity="0.5" stroke-width="3" stroke-miterlimit="10"/>
<path id="Vector_51" d="M59.0218 222.599L73.4737 227.292" stroke="white" stroke-opacity="0.5" stroke-width="3" stroke-miterlimit="10"/>
<path id="Vector_52" d="M526.573 374.439L541.025 379.133" stroke="white" stroke-opacity="0.5" stroke-width="3" stroke-miterlimit="10"/>
<path id="Vector_53" d="M74.2411 185.881L87.7812 192.776" stroke="white" stroke-opacity="0.5" stroke-width="3" stroke-miterlimit="10"/>
<path id="Vector_54" d="M512.265 408.955L525.805 415.851" stroke="white" stroke-opacity="0.5" stroke-width="3" stroke-miterlimit="10"/>
<path id="Vector_55" d="M83.9593 168.535L96.9219 176.471" stroke="white" stroke-opacity="0.5" stroke-width="3" stroke-miterlimit="10"/>
<path id="Vector_56" d="M503.124 425.26L516.087 433.196" stroke="white" stroke-opacity="0.5" stroke-width="3" stroke-miterlimit="10"/>
<path id="Vector_57" d="M95.0147 151.995L107.309 160.926" stroke="white" stroke-opacity="0.5" stroke-width="3" stroke-miterlimit="10"/>
<path id="Vector_58" d="M492.738 440.806L505.032 449.737" stroke="white" stroke-opacity="0.5" stroke-width="3" stroke-miterlimit="10"/>
<path id="Vector_59" d="M107.331 136.381L118.888 146.246" stroke="white" stroke-opacity="0.5" stroke-width="3" stroke-miterlimit="10"/>
<path id="Vector_60" d="M481.158 455.486L492.715 465.351" stroke="white" stroke-opacity="0.5" stroke-width="3" stroke-miterlimit="10"/>
<path id="Vector_61" d="M135.453 108.275L145.323 119.825" stroke="white" stroke-opacity="0.5" stroke-width="3" stroke-miterlimit="10"/>
<path id="Vector_62" d="M151.075 95.9642L160.01 108.252" stroke="white" stroke-opacity="0.5" stroke-width="3" stroke-miterlimit="10"/>
<path id="Vector_63" d="M167.624 84.9145L175.564 97.8704" stroke="white" stroke-opacity="0.5" stroke-width="3" stroke-miterlimit="10"/>
<path id="Vector_64" d="M184.978 75.2014L191.877 88.7345" stroke="white" stroke-opacity="0.5" stroke-width="3" stroke-miterlimit="10"/>
<path id="Vector_65" d="M221.716 59.9901L226.411 74.4344" stroke="white" stroke-opacity="0.5" stroke-width="3" stroke-miterlimit="10"/>
<path id="Vector_66" d="M240.871 54.5905L244.412 69.3614" stroke="white" stroke-opacity="0.5" stroke-width="3" stroke-miterlimit="10"/>
<path id="Vector_67" d="M260.383 50.7174L262.761 65.7162" stroke="white" stroke-opacity="0.5" stroke-width="3" stroke-miterlimit="10"/>
<path id="Vector_68" d="M280.139 48.3784L281.331 63.5214" stroke="white" stroke-opacity="0.5" stroke-width="3" stroke-miterlimit="10"/>
</g>
<g id="fuel-gauge-empty">
<path id="Vector (Stroke)" fill-rule="evenodd" clip-rule="evenodd" d="M241.837 426.627C241.836 426.626 241.835 426.626 243 425C244.165 423.375 244.165 423.374 244.164 423.374C244.164 423.374 244.164 423.374 244.164 423.374L244.168 423.377L244.189 423.392C244.21 423.406 244.243 423.429 244.288 423.46C244.378 423.523 244.517 423.618 244.704 423.742C245.077 423.991 245.641 424.357 246.384 424.812C247.873 425.724 250.081 426.996 252.929 428.412C258.629 431.247 266.877 434.653 277.04 436.923C297.334 441.457 325.297 441.476 355.98 423.28L358.02 426.72C326.313 445.524 297.276 445.543 276.168 440.827C265.629 438.472 257.075 434.941 251.148 431.994C248.184 430.52 245.872 429.19 244.294 428.223C243.505 427.739 242.899 427.346 242.486 427.071C242.279 426.933 242.121 426.825 242.012 426.75C241.958 426.712 241.915 426.683 241.886 426.662L241.851 426.637L241.84 426.63L241.837 426.627Z" fill="white"/>
</g>
<g id="fuel-gauge">
<path id="Vector (Stroke)_2" fill-rule="evenodd" clip-rule="evenodd" d="M241.837 426.627C241.836 426.626 241.835 426.626 243 425C244.165 423.375 244.165 423.374 244.164 423.374C244.164 423.374 244.164 423.374 244.164 423.374L244.168 423.377L244.189 423.392C244.21 423.406 244.243 423.429 244.288 423.46C244.378 423.523 244.517 423.618 244.704 423.742C245.077 423.991 245.641 424.357 246.384 424.812C247.873 425.724 250.081 426.996 252.929 428.412C258.629 431.247 266.877 434.653 277.04 436.923C297.334 441.457 325.297 441.476 355.98 423.28L358.02 426.72C326.313 445.524 297.276 445.543 276.168 440.827C265.629 438.472 257.075 434.941 251.148 431.994C248.184 430.52 245.872 429.19 244.294 428.223C243.505 427.739 242.899 427.346 242.486 427.071C242.279 426.933 242.121 426.825 242.012 426.75C241.958 426.712 241.915 426.683 241.886 426.662L241.851 426.637L241.84 426.63L241.837 426.627Z" fill="#FF0000"/>
</g>
<g id="fuelIcon">
<path id="Vector_69" d="M309.236 390.846L291.562 408.511V411.678H299.571L291 428.818L308.149 411.678V408.511H300.399L309.236 390.846Z" fill="#00D1FF" fill-opacity="0.75"/>
</g>
<g id="zero" filter="url(#filter0_d)">
<path id="0_2" d="M158.194 456.272C156.109 456.272 154.624 455.966 153.74 455.354C152.856 454.742 152.289 453.665 152.04 452.124C151.791 450.56 151.666 447.953 151.666 444.304C151.666 440.655 151.791 438.059 152.04 436.518C152.289 434.954 152.856 433.866 153.74 433.254C154.624 432.642 156.109 432.336 158.194 432.336C160.302 432.336 161.798 432.642 162.682 433.254C163.566 433.866 164.121 434.943 164.348 436.484C164.575 438.003 164.688 440.609 164.688 444.304C164.688 447.953 164.563 450.56 164.314 452.124C164.065 453.665 163.498 454.742 162.614 455.354C161.753 455.966 160.279 456.272 158.194 456.272ZM158.194 453.484C159.305 453.484 160.064 453.325 160.472 453.008C160.903 452.691 161.175 451.943 161.288 450.764C161.424 449.585 161.492 447.432 161.492 444.304C161.492 441.176 161.424 439.023 161.288 437.844C161.175 436.665 160.903 435.917 160.472 435.6C160.064 435.283 159.305 435.124 158.194 435.124C157.061 435.124 156.279 435.283 155.848 435.6C155.44 435.917 155.168 436.665 155.032 437.844C154.919 439.023 154.862 441.176 154.862 444.304C154.862 447.432 154.919 449.585 155.032 450.764C155.168 451.943 155.44 452.691 155.848 453.008C156.279 453.325 157.061 453.484 158.194 453.484Z" fill="white"/>
</g>
<g id="twenty" filter="url(#filter1_d)">
<path id="20" d="M115.624 391.212H124.43V394H112.462V391.212C112.462 389.195 112.507 387.744 112.598 386.86C112.689 385.976 112.915 385.251 113.278 384.684C113.663 384.117 114.309 383.573 115.216 383.052L119.5 380.536C120.225 380.105 120.69 379.641 120.894 379.142C121.121 378.621 121.234 377.816 121.234 376.728C121.234 375.663 121.132 374.881 120.928 374.382C120.724 373.883 120.373 373.555 119.874 373.396C119.398 373.215 118.673 373.124 117.698 373.124C116.27 373.124 114.627 373.249 112.768 373.498V370.914C113.493 370.755 114.4 370.619 115.488 370.506C116.576 370.393 117.585 370.336 118.514 370.336C119.806 370.336 120.86 370.472 121.676 370.744C122.515 371.016 123.183 371.594 123.682 372.478C124.181 373.362 124.43 374.677 124.43 376.422C124.43 377.714 124.339 378.757 124.158 379.55C123.977 380.343 123.682 380.989 123.274 381.488C122.866 381.964 122.299 382.406 121.574 382.814C120.01 383.743 118.469 384.627 116.95 385.466C116.406 385.783 116.055 386.123 115.896 386.486C115.783 386.758 115.703 387.121 115.658 387.574C115.635 388.005 115.624 388.741 115.624 389.784V391.212ZM133.455 394.272C131.37 394.272 129.885 393.966 129.001 393.354C128.117 392.742 127.551 391.665 127.301 390.124C127.052 388.56 126.927 385.953 126.927 382.304C126.927 378.655 127.052 376.059 127.301 374.518C127.551 372.954 128.117 371.866 129.001 371.254C129.885 370.642 131.37 370.336 133.455 370.336C135.563 370.336 137.059 370.642 137.943 371.254C138.827 371.866 139.383 372.943 139.609 374.484C139.836 376.003 139.949 378.609 139.949 382.304C139.949 385.953 139.825 388.56 139.575 390.124C139.326 391.665 138.759 392.742 137.875 393.354C137.014 393.966 135.541 394.272 133.455 394.272ZM133.455 391.484C134.566 391.484 135.325 391.325 135.733 391.008C136.164 390.691 136.436 389.943 136.549 388.764C136.685 387.585 136.753 385.432 136.753 382.304C136.753 379.176 136.685 377.023 136.549 375.844C136.436 374.665 136.164 373.917 135.733 373.6C135.325 373.283 134.566 373.124 133.455 373.124C132.322 373.124 131.54 373.283 131.109 373.6C130.701 373.917 130.429 374.665 130.293 375.844C130.18 377.023 130.123 379.176 130.123 382.304C130.123 385.432 130.18 387.585 130.293 388.764C130.429 389.943 130.701 390.691 131.109 391.008C131.54 391.325 132.322 391.484 133.455 391.484Z" fill="white"/>
</g>
<g id="forty" filter="url(#filter2_d)">
<path id="40" d="M103.418 311V305.696H94.986V303.248L100.766 287.608H104.132L98.318 302.942H103.452L104.166 295.02H106.614V302.942H108.926V305.696H106.614V311H103.418ZM117.418 311.272C115.333 311.272 113.848 310.966 112.964 310.354C112.08 309.742 111.514 308.665 111.264 307.124C111.015 305.56 110.89 302.953 110.89 299.304C110.89 295.655 111.015 293.059 111.264 291.518C111.514 289.954 112.08 288.866 112.964 288.254C113.848 287.642 115.333 287.336 117.418 287.336C119.526 287.336 121.022 287.642 121.906 288.254C122.79 288.866 123.346 289.943 123.572 291.484C123.799 293.003 123.912 295.609 123.912 299.304C123.912 302.953 123.788 305.56 123.538 307.124C123.289 308.665 122.722 309.742 121.838 310.354C120.977 310.966 119.504 311.272 117.418 311.272ZM117.418 308.484C118.529 308.484 119.288 308.325 119.696 308.008C120.127 307.691 120.399 306.943 120.512 305.764C120.648 304.585 120.716 302.432 120.716 299.304C120.716 296.176 120.648 294.023 120.512 292.844C120.399 291.665 120.127 290.917 119.696 290.6C119.288 290.283 118.529 290.124 117.418 290.124C116.285 290.124 115.503 290.283 115.072 290.6C114.664 290.917 114.392 291.665 114.256 292.844C114.143 294.023 114.086 296.176 114.086 299.304C114.086 302.432 114.143 304.585 114.256 305.764C114.392 306.943 114.664 307.691 115.072 308.008C115.503 308.325 116.285 308.484 117.418 308.484Z" fill="white"/>
</g>
<g id="sixty" filter="url(#filter3_d)">
<path id="60" d="M115.466 232.272C114.083 232.272 112.984 232.159 112.168 231.932C111.375 231.705 110.717 231.286 110.196 230.674C109.697 230.039 109.312 229.11 109.04 227.886C108.904 227.229 108.802 226.322 108.734 225.166C108.689 223.987 108.666 222.435 108.666 220.508C108.666 218.627 108.7 217.074 108.768 215.85C108.859 214.626 109.006 213.617 109.21 212.824C109.618 211.192 110.332 210.036 111.352 209.356C112.372 208.676 113.902 208.336 115.942 208.336C116.645 208.336 117.461 208.393 118.39 208.506C119.319 208.619 120.158 208.767 120.906 208.948V211.532C119.206 211.26 117.733 211.124 116.486 211.124C115.058 211.124 114.027 211.339 113.392 211.77C112.757 212.178 112.338 212.937 112.134 214.048C111.953 215.159 111.862 216.983 111.862 219.522H112.032C112.349 219.046 112.814 218.649 113.426 218.332C114.038 218.015 114.967 217.856 116.214 217.856C117.619 217.856 118.707 218.015 119.478 218.332C120.249 218.649 120.815 219.284 121.178 220.236C121.563 221.188 121.756 222.616 121.756 224.52C121.756 226.56 121.586 228.124 121.246 229.212C120.929 230.3 120.317 231.082 119.41 231.558C118.526 232.034 117.211 232.272 115.466 232.272ZM115.262 229.518C116.259 229.518 116.973 229.427 117.404 229.246C117.857 229.065 118.175 228.679 118.356 228.09C118.537 227.478 118.628 226.503 118.628 225.166C118.628 223.715 118.537 222.684 118.356 222.072C118.197 221.437 117.903 221.041 117.472 220.882C117.041 220.701 116.305 220.61 115.262 220.61C114.242 220.61 113.505 220.723 113.052 220.95C112.599 221.154 112.293 221.517 112.134 222.038C111.998 222.537 111.93 223.307 111.93 224.35C111.93 225.891 112.021 227.025 112.202 227.75C112.406 228.475 112.735 228.951 113.188 229.178C113.641 229.405 114.333 229.518 115.262 229.518ZM130.684 232.272C128.599 232.272 127.114 231.966 126.23 231.354C125.346 230.742 124.779 229.665 124.53 228.124C124.281 226.56 124.156 223.953 124.156 220.304C124.156 216.655 124.281 214.059 124.53 212.518C124.779 210.954 125.346 209.866 126.23 209.254C127.114 208.642 128.599 208.336 130.684 208.336C132.792 208.336 134.288 208.642 135.172 209.254C136.056 209.866 136.611 210.943 136.838 212.484C137.065 214.003 137.178 216.609 137.178 220.304C137.178 223.953 137.053 226.56 136.804 228.124C136.555 229.665 135.988 230.742 135.104 231.354C134.243 231.966 132.769 232.272 130.684 232.272ZM130.684 229.484C131.795 229.484 132.554 229.325 132.962 229.008C133.393 228.691 133.665 227.943 133.778 226.764C133.914 225.585 133.982 223.432 133.982 220.304C133.982 217.176 133.914 215.023 133.778 213.844C133.665 212.665 133.393 211.917 132.962 211.6C132.554 211.283 131.795 211.124 130.684 211.124C129.551 211.124 128.769 211.283 128.338 211.6C127.93 211.917 127.658 212.665 127.522 213.844C127.409 215.023 127.352 217.176 127.352 220.304C127.352 223.432 127.409 225.585 127.522 226.764C127.658 227.943 127.93 228.691 128.338 229.008C128.769 229.325 129.551 229.484 130.684 229.484Z" fill="white"/>
</g>
<g id="eighty" filter="url(#filter4_d)">
<path id="80" d="M158.33 169.272C156.517 169.272 155.123 169.045 154.148 168.592C153.173 168.139 152.493 167.447 152.108 166.518C151.745 165.589 151.564 164.342 151.564 162.778C151.564 161.486 151.677 160.466 151.904 159.718C152.131 158.97 152.459 158.415 152.89 158.052C153.343 157.667 153.944 157.361 154.692 157.134V156.998C153.672 156.726 152.913 156.159 152.414 155.298C151.938 154.414 151.7 153.133 151.7 151.456C151.7 149.96 151.904 148.77 152.312 147.886C152.72 147.002 153.4 146.356 154.352 145.948C155.327 145.54 156.653 145.336 158.33 145.336C160.007 145.336 161.322 145.54 162.274 145.948C163.226 146.356 163.906 147.002 164.314 147.886C164.722 148.77 164.926 149.96 164.926 151.456C164.926 153.156 164.688 154.437 164.212 155.298C163.736 156.159 162.977 156.726 161.934 156.998V157.134C162.682 157.361 163.271 157.667 163.702 158.052C164.155 158.415 164.495 158.97 164.722 159.718C164.949 160.443 165.062 161.463 165.062 162.778C165.062 164.342 164.869 165.589 164.484 166.518C164.121 167.425 163.453 168.116 162.478 168.592C161.503 169.045 160.121 169.272 158.33 169.272ZM158.33 155.876C159.282 155.876 159.985 155.774 160.438 155.57C160.914 155.343 161.243 154.969 161.424 154.448C161.605 153.904 161.696 153.077 161.696 151.966C161.696 150.855 161.605 150.028 161.424 149.484C161.265 148.94 160.948 148.566 160.472 148.362C160.019 148.158 159.305 148.056 158.33 148.056C157.355 148.056 156.63 148.169 156.154 148.396C155.701 148.6 155.383 148.974 155.202 149.518C155.021 150.039 154.93 150.855 154.93 151.966C154.93 153.077 155.021 153.904 155.202 154.448C155.383 154.969 155.712 155.343 156.188 155.57C156.664 155.774 157.378 155.876 158.33 155.876ZM158.33 166.552C159.305 166.552 160.03 166.461 160.506 166.28C160.982 166.076 161.322 165.702 161.526 165.158C161.753 164.591 161.866 163.73 161.866 162.574C161.866 161.373 161.764 160.489 161.56 159.922C161.379 159.355 161.039 158.981 160.54 158.8C160.064 158.596 159.327 158.494 158.33 158.494C157.31 158.494 156.551 158.596 156.052 158.8C155.576 158.981 155.236 159.355 155.032 159.922C154.851 160.489 154.76 161.373 154.76 162.574C154.76 163.73 154.862 164.591 155.066 165.158C155.293 165.702 155.644 166.076 156.12 166.28C156.619 166.461 157.355 166.552 158.33 166.552ZM174.182 169.272C172.097 169.272 170.612 168.966 169.728 168.354C168.844 167.742 168.277 166.665 168.028 165.124C167.779 163.56 167.654 160.953 167.654 157.304C167.654 153.655 167.779 151.059 168.028 149.518C168.277 147.954 168.844 146.866 169.728 146.254C170.612 145.642 172.097 145.336 174.182 145.336C176.29 145.336 177.786 145.642 178.67 146.254C179.554 146.866 180.109 147.943 180.336 149.484C180.563 151.003 180.676 153.609 180.676 157.304C180.676 160.953 180.551 163.56 180.302 165.124C180.053 166.665 179.486 167.742 178.602 168.354C177.741 168.966 176.267 169.272 174.182 169.272ZM174.182 166.484C175.293 166.484 176.052 166.325 176.46 166.008C176.891 165.691 177.163 164.943 177.276 163.764C177.412 162.585 177.48 160.432 177.48 157.304C177.48 154.176 177.412 152.023 177.276 150.844C177.163 149.665 176.891 148.917 176.46 148.6C176.052 148.283 175.293 148.124 174.182 148.124C173.049 148.124 172.267 148.283 171.836 148.6C171.428 148.917 171.156 149.665 171.02 150.844C170.907 152.023 170.85 154.176 170.85 157.304C170.85 160.432 170.907 162.585 171.02 163.764C171.156 164.943 171.428 165.691 171.836 166.008C172.267 166.325 173.049 166.484 174.182 166.484Z" fill="white"/>
</g>
<g id="hundred" filter="url(#filter5_d)">
<path id="100" d="M209.114 128V108.382L205.85 109.946V106.988L209.998 104.608H212.31V128H209.114ZM222.143 128.272C220.058 128.272 218.573 127.966 217.689 127.354C216.805 126.742 216.238 125.665 215.989 124.124C215.74 122.56 215.615 119.953 215.615 116.304C215.615 112.655 215.74 110.059 215.989 108.518C216.238 106.954 216.805 105.866 217.689 105.254C218.573 104.642 220.058 104.336 222.143 104.336C224.251 104.336 225.747 104.642 226.631 105.254C227.515 105.866 228.07 106.943 228.297 108.484C228.524 110.003 228.637 112.609 228.637 116.304C228.637 119.953 228.512 122.56 228.263 124.124C228.014 125.665 227.447 126.742 226.563 127.354C225.702 127.966 224.228 128.272 222.143 128.272ZM222.143 125.484C223.254 125.484 224.013 125.325 224.421 125.008C224.852 124.691 225.124 123.943 225.237 122.764C225.373 121.585 225.441 119.432 225.441 116.304C225.441 113.176 225.373 111.023 225.237 109.844C225.124 108.665 224.852 107.917 224.421 107.6C224.013 107.283 223.254 107.124 222.143 107.124C221.01 107.124 220.228 107.283 219.797 107.6C219.389 107.917 219.117 108.665 218.981 109.844C218.868 111.023 218.811 113.176 218.811 116.304C218.811 119.432 218.868 121.585 218.981 122.764C219.117 123.943 219.389 124.691 219.797 125.008C220.228 125.325 221.01 125.484 222.143 125.484ZM237.832 128.272C235.747 128.272 234.262 127.966 233.378 127.354C232.494 126.742 231.927 125.665 231.678 124.124C231.429 122.56 231.304 119.953 231.304 116.304C231.304 112.655 231.429 110.059 231.678 108.518C231.927 106.954 232.494 105.866 233.378 105.254C234.262 104.642 235.747 104.336 237.832 104.336C239.94 104.336 241.436 104.642 242.32 105.254C243.204 105.866 243.759 106.943 243.986 108.484C244.213 110.003 244.326 112.609 244.326 116.304C244.326 119.953 244.201 122.56 243.952 124.124C243.703 125.665 243.136 126.742 242.252 127.354C241.391 127.966 239.917 128.272 237.832 128.272ZM237.832 125.484C238.943 125.484 239.702 125.325 240.11 125.008C240.541 124.691 240.813 123.943 240.926 122.764C241.062 121.585 241.13 119.432 241.13 116.304C241.13 113.176 241.062 111.023 240.926 109.844C240.813 108.665 240.541 107.917 240.11 107.6C239.702 107.283 238.943 107.124 237.832 107.124C236.699 107.124 235.917 107.283 235.486 107.6C235.078 107.917 234.806 108.665 234.67 109.844C234.557 111.023 234.5 113.176 234.5 116.304C234.5 119.432 234.557 121.585 234.67 122.764C234.806 123.943 235.078 124.691 235.486 125.008C235.917 125.325 236.699 125.484 237.832 125.484Z" fill="white"/>
</g>
<g id="oneTwenty" filter="url(#filter6_d)">
<path id="120" d="M284.114 113V93.3821L280.85 94.9461V91.9881L284.998 89.6081H287.31V113H284.114ZM293.573 110.212H302.379V113H290.411V110.212C290.411 108.195 290.456 106.744 290.547 105.86C290.638 104.976 290.864 104.251 291.227 103.684C291.612 103.117 292.258 102.573 293.165 102.052L297.449 99.5361C298.174 99.1054 298.639 98.6407 298.843 98.1421C299.07 97.6207 299.183 96.8161 299.183 95.7281C299.183 94.6627 299.081 93.8807 298.877 93.3821C298.673 92.8834 298.322 92.5547 297.823 92.3961C297.347 92.2147 296.622 92.1241 295.647 92.1241C294.219 92.1241 292.576 92.2487 290.717 92.4981V89.9141C291.442 89.7554 292.349 89.6194 293.437 89.5061C294.525 89.3927 295.534 89.3361 296.463 89.3361C297.755 89.3361 298.809 89.4721 299.625 89.7441C300.464 90.0161 301.132 90.5941 301.631 91.4781C302.13 92.3621 302.379 93.6767 302.379 95.4221C302.379 96.7141 302.288 97.7567 302.107 98.5501C301.926 99.3434 301.631 99.9894 301.223 100.488C300.815 100.964 300.248 101.406 299.523 101.814C297.959 102.743 296.418 103.627 294.899 104.466C294.355 104.783 294.004 105.123 293.845 105.486C293.732 105.758 293.652 106.121 293.607 106.574C293.584 107.005 293.573 107.741 293.573 108.784V110.212ZM311.404 113.272C309.319 113.272 307.834 112.966 306.95 112.354C306.066 111.742 305.5 110.665 305.25 109.124C305.001 107.56 304.876 104.953 304.876 101.304C304.876 97.6547 305.001 95.0594 305.25 93.5181C305.5 91.9541 306.066 90.8661 306.95 90.2541C307.834 89.6421 309.319 89.3361 311.404 89.3361C313.512 89.3361 315.008 89.6421 315.892 90.2541C316.776 90.8661 317.332 91.9427 317.558 93.4841C317.785 95.0027 317.898 97.6094 317.898 101.304C317.898 104.953 317.774 107.56 317.524 109.124C317.275 110.665 316.708 111.742 315.824 112.354C314.963 112.966 313.49 113.272 311.404 113.272ZM311.404 110.484C312.515 110.484 313.274 110.325 313.682 110.008C314.113 109.691 314.385 108.943 314.498 107.764C314.634 106.585 314.702 104.432 314.702 101.304C314.702 98.1761 314.634 96.0227 314.498 94.8441C314.385 93.6654 314.113 92.9174 313.682 92.6001C313.274 92.2827 312.515 92.1241 311.404 92.1241C310.271 92.1241 309.489 92.2827 309.058 92.6001C308.65 92.9174 308.378 93.6654 308.242 94.8441C308.129 96.0227 308.072 98.1761 308.072 101.304C308.072 104.432 308.129 106.585 308.242 107.764C308.378 108.943 308.65 109.691 309.058 110.008C309.489 110.325 310.271 110.484 311.404 110.484Z" fill="white"/>
</g>
<g id="oneForty" filter="url(#filter7_d)">
<path id="140" d="M358.114 128V108.382L354.85 109.946V106.988L358.998 104.608H361.31V128H358.114ZM372.367 128V122.696H363.935V120.248L369.715 104.608H373.081L367.267 119.942H372.401L373.115 112.02H375.563V119.942H377.875V122.696H375.563V128H372.367ZM386.367 128.272C384.282 128.272 382.797 127.966 381.913 127.354C381.029 126.742 380.463 125.665 380.213 124.124C379.964 122.56 379.839 119.953 379.839 116.304C379.839 112.655 379.964 110.059 380.213 108.518C380.463 106.954 381.029 105.866 381.913 105.254C382.797 104.642 384.282 104.336 386.367 104.336C388.475 104.336 389.971 104.642 390.855 105.254C391.739 105.866 392.295 106.943 392.521 108.484C392.748 110.003 392.861 112.609 392.861 116.304C392.861 119.953 392.737 122.56 392.487 124.124C392.238 125.665 391.671 126.742 390.787 127.354C389.926 127.966 388.453 128.272 386.367 128.272ZM386.367 125.484C387.478 125.484 388.237 125.325 388.645 125.008C389.076 124.691 389.348 123.943 389.461 122.764C389.597 121.585 389.665 119.432 389.665 116.304C389.665 113.176 389.597 111.023 389.461 109.844C389.348 108.665 389.076 107.917 388.645 107.6C388.237 107.283 387.478 107.124 386.367 107.124C385.234 107.124 384.452 107.283 384.021 107.6C383.613 107.917 383.341 108.665 383.205 109.844C383.092 111.023 383.035 113.176 383.035 116.304C383.035 119.432 383.092 121.585 383.205 122.764C383.341 123.943 383.613 124.691 384.021 125.008C384.452 125.325 385.234 125.484 386.367 125.484Z" fill="white"/>
</g>
<g id="oneSixty" filter="url(#filter8_d)">
<path id="160" d="M414.114 169V149.382L410.85 150.946V147.988L414.998 145.608H417.31V169H414.114ZM427.415 169.272C426.032 169.272 424.933 169.159 424.117 168.932C423.324 168.705 422.666 168.286 422.145 167.674C421.646 167.039 421.261 166.11 420.989 164.886C420.853 164.229 420.751 163.322 420.683 162.166C420.638 160.987 420.615 159.435 420.615 157.508C420.615 155.627 420.649 154.074 420.717 152.85C420.808 151.626 420.955 150.617 421.159 149.824C421.567 148.192 422.281 147.036 423.301 146.356C424.321 145.676 425.851 145.336 427.891 145.336C428.594 145.336 429.41 145.393 430.339 145.506C431.268 145.619 432.107 145.767 432.855 145.948V148.532C431.155 148.26 429.682 148.124 428.435 148.124C427.007 148.124 425.976 148.339 425.341 148.77C424.706 149.178 424.287 149.937 424.083 151.048C423.902 152.159 423.811 153.983 423.811 156.522H423.981C424.298 156.046 424.763 155.649 425.375 155.332C425.987 155.015 426.916 154.856 428.163 154.856C429.568 154.856 430.656 155.015 431.427 155.332C432.198 155.649 432.764 156.284 433.127 157.236C433.512 158.188 433.705 159.616 433.705 161.52C433.705 163.56 433.535 165.124 433.195 166.212C432.878 167.3 432.266 168.082 431.359 168.558C430.475 169.034 429.16 169.272 427.415 169.272ZM427.211 166.518C428.208 166.518 428.922 166.427 429.353 166.246C429.806 166.065 430.124 165.679 430.305 165.09C430.486 164.478 430.577 163.503 430.577 162.166C430.577 160.715 430.486 159.684 430.305 159.072C430.146 158.437 429.852 158.041 429.421 157.882C428.99 157.701 428.254 157.61 427.211 157.61C426.191 157.61 425.454 157.723 425.001 157.95C424.548 158.154 424.242 158.517 424.083 159.038C423.947 159.537 423.879 160.307 423.879 161.35C423.879 162.891 423.97 164.025 424.151 164.75C424.355 165.475 424.684 165.951 425.137 166.178C425.59 166.405 426.282 166.518 427.211 166.518ZM442.633 169.272C440.547 169.272 439.063 168.966 438.179 168.354C437.295 167.742 436.728 166.665 436.479 165.124C436.229 163.56 436.105 160.953 436.105 157.304C436.105 153.655 436.229 151.059 436.479 149.518C436.728 147.954 437.295 146.866 438.179 146.254C439.063 145.642 440.547 145.336 442.633 145.336C444.741 145.336 446.237 145.642 447.121 146.254C448.005 146.866 448.56 147.943 448.787 149.484C449.013 151.003 449.127 153.609 449.127 157.304C449.127 160.953 449.002 163.56 448.753 165.124C448.503 166.665 447.937 167.742 447.053 168.354C446.191 168.966 444.718 169.272 442.633 169.272ZM442.633 166.484C443.743 166.484 444.503 166.325 444.911 166.008C445.341 165.691 445.613 164.943 445.727 163.764C445.863 162.585 445.931 160.432 445.931 157.304C445.931 154.176 445.863 152.023 445.727 150.844C445.613 149.665 445.341 148.917 444.911 148.6C444.503 148.283 443.743 148.124 442.633 148.124C441.499 148.124 440.717 148.283 440.287 148.6C439.879 148.917 439.607 149.665 439.471 150.844C439.357 152.023 439.301 154.176 439.301 157.304C439.301 160.432 439.357 162.585 439.471 163.764C439.607 164.943 439.879 165.691 440.287 166.008C440.717 166.325 441.499 166.484 442.633 166.484Z" fill="white"/>
</g>
<g id="oneEighty" filter="url(#filter9_d)">
<path id="180" d="M455.114 232V212.382L451.85 213.946V210.988L455.998 208.608H458.31V232H455.114ZM468.279 232.272C466.466 232.272 465.072 232.045 464.097 231.592C463.122 231.139 462.442 230.447 462.057 229.518C461.694 228.589 461.513 227.342 461.513 225.778C461.513 224.486 461.626 223.466 461.853 222.718C462.08 221.97 462.408 221.415 462.839 221.052C463.292 220.667 463.893 220.361 464.641 220.134V219.998C463.621 219.726 462.862 219.159 462.363 218.298C461.887 217.414 461.649 216.133 461.649 214.456C461.649 212.96 461.853 211.77 462.261 210.886C462.669 210.002 463.349 209.356 464.301 208.948C465.276 208.54 466.602 208.336 468.279 208.336C469.956 208.336 471.271 208.54 472.223 208.948C473.175 209.356 473.855 210.002 474.263 210.886C474.671 211.77 474.875 212.96 474.875 214.456C474.875 216.156 474.637 217.437 474.161 218.298C473.685 219.159 472.926 219.726 471.883 219.998V220.134C472.631 220.361 473.22 220.667 473.651 221.052C474.104 221.415 474.444 221.97 474.671 222.718C474.898 223.443 475.011 224.463 475.011 225.778C475.011 227.342 474.818 228.589 474.433 229.518C474.07 230.425 473.402 231.116 472.427 231.592C471.452 232.045 470.07 232.272 468.279 232.272ZM468.279 218.876C469.231 218.876 469.934 218.774 470.387 218.57C470.863 218.343 471.192 217.969 471.373 217.448C471.554 216.904 471.645 216.077 471.645 214.966C471.645 213.855 471.554 213.028 471.373 212.484C471.214 211.94 470.897 211.566 470.421 211.362C469.968 211.158 469.254 211.056 468.279 211.056C467.304 211.056 466.579 211.169 466.103 211.396C465.65 211.6 465.332 211.974 465.151 212.518C464.97 213.039 464.879 213.855 464.879 214.966C464.879 216.077 464.97 216.904 465.151 217.448C465.332 217.969 465.661 218.343 466.137 218.57C466.613 218.774 467.327 218.876 468.279 218.876ZM468.279 229.552C469.254 229.552 469.979 229.461 470.455 229.28C470.931 229.076 471.271 228.702 471.475 228.158C471.702 227.591 471.815 226.73 471.815 225.574C471.815 224.373 471.713 223.489 471.509 222.922C471.328 222.355 470.988 221.981 470.489 221.8C470.013 221.596 469.276 221.494 468.279 221.494C467.259 221.494 466.5 221.596 466.001 221.8C465.525 221.981 465.185 222.355 464.981 222.922C464.8 223.489 464.709 224.373 464.709 225.574C464.709 226.73 464.811 227.591 465.015 228.158C465.242 228.702 465.593 229.076 466.069 229.28C466.568 229.461 467.304 229.552 468.279 229.552ZM484.131 232.272C482.046 232.272 480.561 231.966 479.677 231.354C478.793 230.742 478.226 229.665 477.977 228.124C477.728 226.56 477.603 223.953 477.603 220.304C477.603 216.655 477.728 214.059 477.977 212.518C478.226 210.954 478.793 209.866 479.677 209.254C480.561 208.642 482.046 208.336 484.131 208.336C486.239 208.336 487.735 208.642 488.619 209.254C489.503 209.866 490.058 210.943 490.285 212.484C490.512 214.003 490.625 216.609 490.625 220.304C490.625 223.953 490.5 226.56 490.251 228.124C490.002 229.665 489.435 230.742 488.551 231.354C487.69 231.966 486.216 232.272 484.131 232.272ZM484.131 229.484C485.242 229.484 486.001 229.325 486.409 229.008C486.84 228.691 487.112 227.943 487.225 226.764C487.361 225.585 487.429 223.432 487.429 220.304C487.429 217.176 487.361 215.023 487.225 213.844C487.112 212.665 486.84 211.917 486.409 211.6C486.001 211.283 485.242 211.124 484.131 211.124C482.998 211.124 482.216 211.283 481.785 211.6C481.377 211.917 481.105 212.665 480.969 213.844C480.856 215.023 480.799 217.176 480.799 220.304C480.799 223.432 480.856 225.585 480.969 226.764C481.105 227.943 481.377 228.691 481.785 229.008C482.216 229.325 482.998 229.484 484.131 229.484Z" fill="white"/>
</g>
<g id="twoHundred" filter="url(#filter10_d)">
<path id="200" d="M464.624 308.212H473.43V311H461.462V308.212C461.462 306.195 461.507 304.744 461.598 303.86C461.689 302.976 461.915 302.251 462.278 301.684C462.663 301.117 463.309 300.573 464.216 300.052L468.5 297.536C469.225 297.105 469.69 296.641 469.894 296.142C470.121 295.621 470.234 294.816 470.234 293.728C470.234 292.663 470.132 291.881 469.928 291.382C469.724 290.883 469.373 290.555 468.874 290.396C468.398 290.215 467.673 290.124 466.698 290.124C465.27 290.124 463.627 290.249 461.768 290.498V287.914C462.493 287.755 463.4 287.619 464.488 287.506C465.576 287.393 466.585 287.336 467.514 287.336C468.806 287.336 469.86 287.472 470.676 287.744C471.515 288.016 472.183 288.594 472.682 289.478C473.181 290.362 473.43 291.677 473.43 293.422C473.43 294.714 473.339 295.757 473.158 296.55C472.977 297.343 472.682 297.989 472.274 298.488C471.866 298.964 471.299 299.406 470.574 299.814C469.01 300.743 467.469 301.627 465.95 302.466C465.406 302.783 465.055 303.123 464.896 303.486C464.783 303.758 464.703 304.121 464.658 304.574C464.635 305.005 464.624 305.741 464.624 306.784V308.212ZM482.455 311.272C480.37 311.272 478.885 310.966 478.001 310.354C477.117 309.742 476.551 308.665 476.301 307.124C476.052 305.56 475.927 302.953 475.927 299.304C475.927 295.655 476.052 293.059 476.301 291.518C476.551 289.954 477.117 288.866 478.001 288.254C478.885 287.642 480.37 287.336 482.455 287.336C484.563 287.336 486.059 287.642 486.943 288.254C487.827 288.866 488.383 289.943 488.609 291.484C488.836 293.003 488.949 295.609 488.949 299.304C488.949 302.953 488.825 305.56 488.575 307.124C488.326 308.665 487.759 309.742 486.875 310.354C486.014 310.966 484.541 311.272 482.455 311.272ZM482.455 308.484C483.566 308.484 484.325 308.325 484.733 308.008C485.164 307.691 485.436 306.943 485.549 305.764C485.685 304.585 485.753 302.432 485.753 299.304C485.753 296.176 485.685 294.023 485.549 292.844C485.436 291.665 485.164 290.917 484.733 290.6C484.325 290.283 483.566 290.124 482.455 290.124C481.322 290.124 480.54 290.283 480.109 290.6C479.701 290.917 479.429 291.665 479.293 292.844C479.18 294.023 479.123 296.176 479.123 299.304C479.123 302.432 479.18 304.585 479.293 305.764C479.429 306.943 479.701 307.691 480.109 308.008C480.54 308.325 481.322 308.484 482.455 308.484ZM498.145 311.272C496.059 311.272 494.575 310.966 493.691 310.354C492.807 309.742 492.24 308.665 491.991 307.124C491.741 305.56 491.617 302.953 491.617 299.304C491.617 295.655 491.741 293.059 491.991 291.518C492.24 289.954 492.807 288.866 493.691 288.254C494.575 287.642 496.059 287.336 498.145 287.336C500.253 287.336 501.749 287.642 502.633 288.254C503.517 288.866 504.072 289.943 504.299 291.484C504.525 293.003 504.639 295.609 504.639 299.304C504.639 302.953 504.514 305.56 504.265 307.124C504.015 308.665 503.449 309.742 502.565 310.354C501.703 310.966 500.23 311.272 498.145 311.272ZM498.145 308.484C499.255 308.484 500.015 308.325 500.423 308.008C500.853 307.691 501.125 306.943 501.239 305.764C501.375 304.585 501.443 302.432 501.443 299.304C501.443 296.176 501.375 294.023 501.239 292.844C501.125 291.665 500.853 290.917 500.423 290.6C500.015 290.283 499.255 290.124 498.145 290.124C497.011 290.124 496.229 290.283 495.799 290.6C495.391 290.917 495.119 291.665 494.983 292.844C494.869 294.023 494.813 296.176 494.813 299.304C494.813 302.432 494.869 304.585 494.983 305.764C495.119 306.943 495.391 307.691 495.799 308.008C496.229 308.325 497.011 308.484 498.145 308.484Z" fill="white"/>
</g>
<g id="twoTwenty" filter="url(#filter11_d)">
<path id="220" d="M452.624 391.212H461.43V394H449.462V391.212C449.462 389.195 449.507 387.744 449.598 386.86C449.689 385.976 449.915 385.251 450.278 384.684C450.663 384.117 451.309 383.573 452.216 383.052L456.5 380.536C457.225 380.105 457.69 379.641 457.894 379.142C458.121 378.621 458.234 377.816 458.234 376.728C458.234 375.663 458.132 374.881 457.928 374.382C457.724 373.883 457.373 373.555 456.874 373.396C456.398 373.215 455.673 373.124 454.698 373.124C453.27 373.124 451.627 373.249 449.768 373.498V370.914C450.493 370.755 451.4 370.619 452.488 370.506C453.576 370.393 454.585 370.336 455.514 370.336C456.806 370.336 457.86 370.472 458.676 370.744C459.515 371.016 460.183 371.594 460.682 372.478C461.181 373.362 461.43 374.677 461.43 376.422C461.43 377.714 461.339 378.757 461.158 379.55C460.977 380.343 460.682 380.989 460.274 381.488C459.866 381.964 459.299 382.406 458.574 382.814C457.01 383.743 455.469 384.627 453.95 385.466C453.406 385.783 453.055 386.123 452.896 386.486C452.783 386.758 452.703 387.121 452.658 387.574C452.635 388.005 452.624 388.741 452.624 389.784V391.212ZM466.885 391.212H475.691V394H463.723V391.212C463.723 389.195 463.769 387.744 463.859 386.86C463.95 385.976 464.177 385.251 464.539 384.684C464.925 384.117 465.571 383.573 466.477 383.052L470.761 380.536C471.487 380.105 471.951 379.641 472.155 379.142C472.382 378.621 472.495 377.816 472.495 376.728C472.495 375.663 472.393 374.881 472.189 374.382C471.985 373.883 471.634 373.555 471.135 373.396C470.659 373.215 469.934 373.124 468.959 373.124C467.531 373.124 465.888 373.249 464.029 373.498V370.914C464.755 370.755 465.661 370.619 466.749 370.506C467.837 370.393 468.846 370.336 469.775 370.336C471.067 370.336 472.121 370.472 472.937 370.744C473.776 371.016 474.445 371.594 474.943 372.478C475.442 373.362 475.691 374.677 475.691 376.422C475.691 377.714 475.601 378.757 475.419 379.55C475.238 380.343 474.943 380.989 474.535 381.488C474.127 381.964 473.561 382.406 472.835 382.814C471.271 383.743 469.73 384.627 468.211 385.466C467.667 385.783 467.316 386.123 467.157 386.486C467.044 386.758 466.965 387.121 466.919 387.574C466.897 388.005 466.885 388.741 466.885 389.784V391.212ZM484.717 394.272C482.631 394.272 481.147 393.966 480.263 393.354C479.379 392.742 478.812 391.665 478.563 390.124C478.313 388.56 478.189 385.953 478.189 382.304C478.189 378.655 478.313 376.059 478.563 374.518C478.812 372.954 479.379 371.866 480.263 371.254C481.147 370.642 482.631 370.336 484.717 370.336C486.825 370.336 488.321 370.642 489.205 371.254C490.089 371.866 490.644 372.943 490.871 374.484C491.097 376.003 491.211 378.609 491.211 382.304C491.211 385.953 491.086 388.56 490.837 390.124C490.587 391.665 490.021 392.742 489.137 393.354C488.275 393.966 486.802 394.272 484.717 394.272ZM484.717 391.484C485.827 391.484 486.587 391.325 486.995 391.008C487.425 390.691 487.697 389.943 487.811 388.764C487.947 387.585 488.015 385.432 488.015 382.304C488.015 379.176 487.947 377.023 487.811 375.844C487.697 374.665 487.425 373.917 486.995 373.6C486.587 373.283 485.827 373.124 484.717 373.124C483.583 373.124 482.801 373.283 482.371 373.6C481.963 373.917 481.691 374.665 481.555 375.844C481.441 377.023 481.385 379.176 481.385 382.304C481.385 385.432 481.441 387.585 481.555 388.764C481.691 389.943 481.963 390.691 482.371 391.008C482.801 391.325 483.583 391.484 484.717 391.484Z" fill="white"/>
</g>
<g id="twoForty" filter="url(#filter12_d)">
<path id="240" d="M403.624 453.212H412.43V456H400.462V453.212C400.462 451.195 400.507 449.744 400.598 448.86C400.689 447.976 400.915 447.251 401.278 446.684C401.663 446.117 402.309 445.573 403.216 445.052L407.5 442.536C408.225 442.105 408.69 441.641 408.894 441.142C409.121 440.621 409.234 439.816 409.234 438.728C409.234 437.663 409.132 436.881 408.928 436.382C408.724 435.883 408.373 435.555 407.874 435.396C407.398 435.215 406.673 435.124 405.698 435.124C404.27 435.124 402.627 435.249 400.768 435.498V432.914C401.493 432.755 402.4 432.619 403.488 432.506C404.576 432.393 405.585 432.336 406.514 432.336C407.806 432.336 408.86 432.472 409.676 432.744C410.515 433.016 411.183 433.594 411.682 434.478C412.181 435.362 412.43 436.677 412.43 438.422C412.43 439.714 412.339 440.757 412.158 441.55C411.977 442.343 411.682 442.989 411.274 443.488C410.866 443.964 410.299 444.406 409.574 444.814C408.01 445.743 406.469 446.627 404.95 447.466C404.406 447.783 404.055 448.123 403.896 448.486C403.783 448.758 403.703 449.121 403.658 449.574C403.635 450.005 403.624 450.741 403.624 451.784V453.212ZM422.679 456V450.696H414.247V448.248L420.027 432.608H423.393L417.579 447.942H422.713L423.427 440.02H425.875V447.942H428.187V450.696H425.875V456H422.679ZM436.68 456.272C434.594 456.272 433.11 455.966 432.226 455.354C431.342 454.742 430.775 453.665 430.526 452.124C430.276 450.56 430.152 447.953 430.152 444.304C430.152 440.655 430.276 438.059 430.526 436.518C430.775 434.954 431.342 433.866 432.226 433.254C433.11 432.642 434.594 432.336 436.68 432.336C438.788 432.336 440.284 432.642 441.168 433.254C442.052 433.866 442.607 434.943 442.834 436.484C443.06 438.003 443.174 440.609 443.174 444.304C443.174 447.953 443.049 450.56 442.8 452.124C442.55 453.665 441.984 454.742 441.1 455.354C440.238 455.966 438.765 456.272 436.68 456.272ZM436.68 453.484C437.79 453.484 438.55 453.325 438.958 453.008C439.388 452.691 439.66 451.943 439.774 450.764C439.91 449.585 439.978 447.432 439.978 444.304C439.978 441.176 439.91 439.023 439.774 437.844C439.66 436.665 439.388 435.917 438.958 435.6C438.55 435.283 437.79 435.124 436.68 435.124C435.546 435.124 434.764 435.283 434.334 435.6C433.926 435.917 433.654 436.665 433.518 437.844C433.404 439.023 433.348 441.176 433.348 444.304C433.348 447.432 433.404 449.585 433.518 450.764C433.654 451.943 433.926 452.691 434.334 453.008C434.764 453.325 435.546 453.484 436.68 453.484Z" fill="white"/>
</g>
<path id="km/h" d="M288.04 324L285.84 319.62H284.94V324H283.16V309.14H284.94V318.12H285.84L288.04 313.8H289.92L287.3 318.72L289.98 324H288.04ZM300.661 318.16C300.661 317.227 300.627 316.567 300.561 316.18C300.507 315.793 300.387 315.54 300.201 315.42C300.014 315.3 299.701 315.24 299.261 315.24C298.754 315.24 298.381 315.36 298.141 315.6C297.914 315.827 297.774 316.16 297.721 316.6C297.667 317.04 297.641 317.733 297.641 318.68V324H295.861V318.16C295.861 317.24 295.827 316.587 295.761 316.2C295.694 315.8 295.567 315.54 295.381 315.42C295.207 315.3 294.901 315.24 294.461 315.24C293.954 315.24 293.581 315.36 293.341 315.6C293.114 315.84 292.974 316.187 292.921 316.64C292.867 317.093 292.841 317.773 292.841 318.68V324H291.061V313.8H292.661L292.741 315.16H292.861C293.047 314.667 293.321 314.293 293.681 314.04C294.041 313.773 294.547 313.64 295.201 313.64C295.907 313.64 296.427 313.76 296.761 314C297.107 314.227 297.347 314.613 297.481 315.16H297.601C297.774 314.667 298.047 314.293 298.421 314.04C298.807 313.773 299.327 313.64 299.981 313.64C300.674 313.64 301.194 313.773 301.541 314.04C301.887 314.293 302.121 314.687 302.241 315.22C302.374 315.753 302.441 316.5 302.441 317.46V324H300.661V318.16ZM303.473 325.1L307.253 309.14H308.853L305.053 325.1H303.473ZM314.909 318.16C314.909 317.24 314.869 316.587 314.789 316.2C314.722 315.8 314.589 315.54 314.389 315.42C314.189 315.3 313.849 315.24 313.369 315.24C312.849 315.24 312.469 315.36 312.229 315.6C312.002 315.84 311.855 316.187 311.789 316.64C311.735 317.08 311.709 317.76 311.709 318.68V324H309.929V309.14H311.709V315H311.809C312.169 314.093 312.949 313.64 314.149 313.64C314.869 313.64 315.409 313.773 315.769 314.04C316.129 314.307 316.369 314.707 316.489 315.24C316.622 315.773 316.689 316.513 316.689 317.46V324H314.909V318.16Z" fill="white"/>
<path id="red-bar" d="M568.648 299C568.21 366.23 543.213 430.608 499 478.371L501.45 481C523.287 457.406 540.714 429.567 552.796 398.979C565.302 367.336 571.829 333.356 572 299H568.648Z" fill="#FF0000"/>
</g>
<defs>
<filter id="filter0_d" x="141.666" y="426.336" width="33.022" height="43.936" filterUnits="userSpaceOnUse" color-interpolation-filters="sRGB">
<feFlood flood-opacity="0" result="BackgroundImageFix"/>
<feColorMatrix in="SourceAlpha" type="matrix" values="0 0 0 0 0 0 0 0 0 0 0 0 0 0 0 0 0 0 127 0" result="hardAlpha"/>
<feOffset dy="4"/>
<feGaussianBlur stdDeviation="5"/>
<feComposite in2="hardAlpha" operator="out"/>
<feColorMatrix type="matrix" values="0 0 0 0 0 0 0 0 0 0 0 0 0 0 0 0 0 0 1 0"/>
<feBlend mode="normal" in2="BackgroundImageFix" result="effect1_dropShadow"/>
<feBlend mode="normal" in="SourceGraphic" in2="effect1_dropShadow" result="shape"/>
</filter>
<filter id="filter1_d" x="102.462" y="364.336" width="47.4874" height="43.936" filterUnits="userSpaceOnUse" color-interpolation-filters="sRGB">
<feFlood flood-opacity="0" result="BackgroundImageFix"/>
<feColorMatrix in="SourceAlpha" type="matrix" values="0 0 0 0 0 0 0 0 0 0 0 0 0 0 0 0 0 0 127 0" result="hardAlpha"/>
<feOffset dy="4"/>
<feGaussianBlur stdDeviation="5"/>
<feComposite in2="hardAlpha" operator="out"/>
<feColorMatrix type="matrix" values="0 0 0 0 0 0 0 0 0 0 0 0 0 0 0 0 0 0 1 0"/>
<feBlend mode="normal" in2="BackgroundImageFix" result="effect1_dropShadow"/>
<feBlend mode="normal" in="SourceGraphic" in2="effect1_dropShadow" result="shape"/>
</filter>
<filter id="filter2_d" x="84.986" y="281.336" width="48.9263" height="43.936" filterUnits="userSpaceOnUse" color-interpolation-filters="sRGB">
<feFlood flood-opacity="0" result="BackgroundImageFix"/>
<feColorMatrix in="SourceAlpha" type="matrix" values="0 0 0 0 0 0 0 0 0 0 0 0 0 0 0 0 0 0 127 0" result="hardAlpha"/>
<feOffset dy="4"/>
<feGaussianBlur stdDeviation="5"/>
<feComposite in2="hardAlpha" operator="out"/>
<feColorMatrix type="matrix" values="0 0 0 0 0 0 0 0 0 0 0 0 0 0 0 0 0 0 1 0"/>
<feBlend mode="normal" in2="BackgroundImageFix" result="effect1_dropShadow"/>
<feBlend mode="normal" in="SourceGraphic" in2="effect1_dropShadow" result="shape"/>
</filter>
<filter id="filter3_d" x="98.666" y="202.336" width="48.5119" height="43.936" filterUnits="userSpaceOnUse" color-interpolation-filters="sRGB">
<feFlood flood-opacity="0" result="BackgroundImageFix"/>
<feColorMatrix in="SourceAlpha" type="matrix" values="0 0 0 0 0 0 0 0 0 0 0 0 0 0 0 0 0 0 127 0" result="hardAlpha"/>
<feOffset dy="4"/>
<feGaussianBlur stdDeviation="5"/>
<feComposite in2="hardAlpha" operator="out"/>
<feColorMatrix type="matrix" values="0 0 0 0 0 0 0 0 0 0 0 0 0 0 0 0 0 0 1 0"/>
<feBlend mode="normal" in2="BackgroundImageFix" result="effect1_dropShadow"/>
<feBlend mode="normal" in="SourceGraphic" in2="effect1_dropShadow" result="shape"/>
</filter>
<filter id="filter4_d" x="141.564" y="139.336" width="49.112" height="43.936" filterUnits="userSpaceOnUse" color-interpolation-filters="sRGB">
<feFlood flood-opacity="0" result="BackgroundImageFix"/>
<feColorMatrix in="SourceAlpha" type="matrix" values="0 0 0 0 0 0 0 0 0 0 0 0 0 0 0 0 0 0 127 0" result="hardAlpha"/>
<feOffset dy="4"/>
<feGaussianBlur stdDeviation="5"/>
<feComposite in2="hardAlpha" operator="out"/>
<feColorMatrix type="matrix" values="0 0 0 0 0 0 0 0 0 0 0 0 0 0 0 0 0 0 1 0"/>
<feBlend mode="normal" in2="BackgroundImageFix" result="effect1_dropShadow"/>
<feBlend mode="normal" in="SourceGraphic" in2="effect1_dropShadow" result="shape"/>
</filter>
<filter id="filter5_d" x="195.85" y="98.3361" width="58.476" height="43.936" filterUnits="userSpaceOnUse" color-interpolation-filters="sRGB">
<feFlood flood-opacity="0" result="BackgroundImageFix"/>
<feColorMatrix in="SourceAlpha" type="matrix" values="0 0 0 0 0 0 0 0 0 0 0 0 0 0 0 0 0 0 127 0" result="hardAlpha"/>
<feOffset dy="4"/>
<feGaussianBlur stdDeviation="5"/>
<feComposite in2="hardAlpha" operator="out"/>
<feColorMatrix type="matrix" values="0 0 0 0 0 0 0 0 0 0 0 0 0 0 0 0 0 0 1 0"/>
<feBlend mode="normal" in2="BackgroundImageFix" result="effect1_dropShadow"/>
<feBlend mode="normal" in="SourceGraphic" in2="effect1_dropShadow" result="shape"/>
</filter>
<filter id="filter6_d" x="270.85" y="83.3361" width="57.0483" height="43.936" filterUnits="userSpaceOnUse" color-interpolation-filters="sRGB">
<feFlood flood-opacity="0" result="BackgroundImageFix"/>
<feColorMatrix in="SourceAlpha" type="matrix" values="0 0 0 0 0 0 0 0 0 0 0 0 0 0 0 0 0 0 127 0" result="hardAlpha"/>
<feOffset dy="4"/>
<feGaussianBlur stdDeviation="5"/>
<feComposite in2="hardAlpha" operator="out"/>
<feColorMatrix type="matrix" values="0 0 0 0 0 0 0 0 0 0 0 0 0 0 0 0 0 0 1 0"/>
<feBlend mode="normal" in2="BackgroundImageFix" result="effect1_dropShadow"/>
<feBlend mode="normal" in="SourceGraphic" in2="effect1_dropShadow" result="shape"/>
</filter>
<filter id="filter7_d" x="344.85" y="98.3361" width="58.0112" height="43.936" filterUnits="userSpaceOnUse" color-interpolation-filters="sRGB">
<feFlood flood-opacity="0" result="BackgroundImageFix"/>
<feColorMatrix in="SourceAlpha" type="matrix" values="0 0 0 0 0 0 0 0 0 0 0 0 0 0 0 0 0 0 127 0" result="hardAlpha"/>
<feOffset dy="4"/>
<feGaussianBlur stdDeviation="5"/>
<feComposite in2="hardAlpha" operator="out"/>
<feColorMatrix type="matrix" values="0 0 0 0 0 0 0 0 0 0 0 0 0 0 0 0 0 0 1 0"/>
<feBlend mode="normal" in2="BackgroundImageFix" result="effect1_dropShadow"/>
<feBlend mode="normal" in="SourceGraphic" in2="effect1_dropShadow" result="shape"/>
</filter>
<filter id="filter8_d" x="400.85" y="139.336" width="58.2768" height="43.936" filterUnits="userSpaceOnUse" color-interpolation-filters="sRGB">
<feFlood flood-opacity="0" result="BackgroundImageFix"/>
<feColorMatrix in="SourceAlpha" type="matrix" values="0 0 0 0 0 0 0 0 0 0 0 0 0 0 0 0 0 0 127 0" result="hardAlpha"/>
<feOffset dy="4"/>
<feGaussianBlur stdDeviation="5"/>
<feComposite in2="hardAlpha" operator="out"/>
<feColorMatrix type="matrix" values="0 0 0 0 0 0 0 0 0 0 0 0 0 0 0 0 0 0 1 0"/>
<feBlend mode="normal" in2="BackgroundImageFix" result="effect1_dropShadow"/>
<feBlend mode="normal" in="SourceGraphic" in2="effect1_dropShadow" result="shape"/>
</filter>
<filter id="filter9_d" x="441.85" y="202.336" width="58.7749" height="43.936" filterUnits="userSpaceOnUse" color-interpolation-filters="sRGB">
<feFlood flood-opacity="0" result="BackgroundImageFix"/>
<feColorMatrix in="SourceAlpha" type="matrix" values="0 0 0 0 0 0 0 0 0 0 0 0 0 0 0 0 0 0 127 0" result="hardAlpha"/>
<feOffset dy="4"/>
<feGaussianBlur stdDeviation="5"/>
<feComposite in2="hardAlpha" operator="out"/>
<feColorMatrix type="matrix" values="0 0 0 0 0 0 0 0 0 0 0 0 0 0 0 0 0 0 1 0"/>
<feBlend mode="normal" in2="BackgroundImageFix" result="effect1_dropShadow"/>
<feBlend mode="normal" in="SourceGraphic" in2="effect1_dropShadow" result="shape"/>
</filter>
<filter id="filter10_d" x="451.462" y="281.336" width="63.1765" height="43.936" filterUnits="userSpaceOnUse" color-interpolation-filters="sRGB">
<feFlood flood-opacity="0" result="BackgroundImageFix"/>
<feColorMatrix in="SourceAlpha" type="matrix" values="0 0 0 0 0 0 0 0 0 0 0 0 0 0 0 0 0 0 127 0" result="hardAlpha"/>
<feOffset dy="4"/>
<feGaussianBlur stdDeviation="5"/>
<feComposite in2="hardAlpha" operator="out"/>
<feColorMatrix type="matrix" values="0 0 0 0 0 0 0 0 0 0 0 0 0 0 0 0 0 0 1 0"/>
<feBlend mode="normal" in2="BackgroundImageFix" result="effect1_dropShadow"/>
<feBlend mode="normal" in="SourceGraphic" in2="effect1_dropShadow" result="shape"/>
</filter>
<filter id="filter11_d" x="439.462" y="364.336" width="61.7488" height="43.936" filterUnits="userSpaceOnUse" color-interpolation-filters="sRGB">
<feFlood flood-opacity="0" result="BackgroundImageFix"/>
<feColorMatrix in="SourceAlpha" type="matrix" values="0 0 0 0 0 0 0 0 0 0 0 0 0 0 0 0 0 0 127 0" result="hardAlpha"/>
<feOffset dy="4"/>
<feGaussianBlur stdDeviation="5"/>
<feComposite in2="hardAlpha" operator="out"/>
<feColorMatrix type="matrix" values="0 0 0 0 0 0 0 0 0 0 0 0 0 0 0 0 0 0 1 0"/>
<feBlend mode="normal" in2="BackgroundImageFix" result="effect1_dropShadow"/>
<feBlend mode="normal" in="SourceGraphic" in2="effect1_dropShadow" result="shape"/>
</filter>
<filter id="filter12_d" x="390.462" y="426.336" width="62.7117" height="43.936" filterUnits="userSpaceOnUse" color-interpolation-filters="sRGB">
<feFlood flood-opacity="0" result="BackgroundImageFix"/>
<feColorMatrix in="SourceAlpha" type="matrix" values="0 0 0 0 0 0 0 0 0 0 0 0 0 0 0 0 0 0 127 0" result="hardAlpha"/>
<feOffset dy="4"/>
<feGaussianBlur stdDeviation="5"/>
<feComposite in2="hardAlpha" operator="out"/>
<feColorMatrix type="matrix" values="0 0 0 0 0 0 0 0 0 0 0 0 0 0 0 0 0 0 1 0"/>
<feBlend mode="normal" in2="BackgroundImageFix" result="effect1_dropShadow"/>
<feBlend mode="normal" in="SourceGraphic" in2="effect1_dropShadow" result="shape"/>
</filter>
<clipPath id="clip0">
<rect width="600" height="600" fill="white"/>
</clipPath>
</defs>
</svg>
