<svg width="600" height="600" viewBox="0 0 600 600" fill="none" xmlns="http://www.w3.org/2000/svg">
<g id="odometer">
<g id="odometer_2">
<g id="big-gauge">
<path id="Vector" d="M395.1 102.1L383.5 130.2L387.2 131.7L398.8 103.6L395.1 102.1Z" fill="black"/>
<path id="Vector_2" d="M140.9 493.1L119.4 514.6L122.2 517.4L143.7 495.9L140.9 493.1Z" fill="black"/>
<path id="Vector_3" d="M477.8 156.3L456.3 177.8L459.1 180.6L480.6 159.1L477.8 156.3Z" fill="black"/>
<path id="Vector_4" d="M93.3 420.3L65.2 432L66.7 435.7L94.8 424L93.3 420.3Z" fill="black"/>
<path id="Vector_5" d="M533.3 238L505.2 249.6L506.7 253.3L534.8 241.7L533.3 238Z" fill="black"/>
<path id="Vector_6" d="M77 334.9H46.6V338.9H77V334.9Z" fill="black"/>
<path id="Vector_7" d="M553.4 334.8H523V338.8H553.4V334.8Z" fill="black"/>
<path id="Vector_8" d="M66.7 238.1L65.2 241.8L93.3 253.4L94.8 249.7L66.7 238.1Z" fill="black"/>
<path id="Vector_9" d="M506.8 420.3L505.3 424L533.4 435.6L534.9 431.9L506.8 420.3Z" fill="black"/>
<path id="Vector_10" d="M122.2 156.4L119.4 159.2L140.9 180.7L143.7 177.9L122.2 156.4Z" fill="black"/>
<path id="Vector_11" d="M459.2 493L456.4 495.8L477.9 517.3L480.7 514.5L459.2 493Z" fill="black"/>
<path id="Vector_12" d="M204.9 102.1L201.2 103.6L212.8 131.7L216.5 130.2L204.9 102.1Z" fill="black"/>
<path id="Vector_13" d="M302 83.6H298V97.6V114H302V83.6Z" fill="black"/>
</g>
<g id="range-gauge">
<path id="Vector_14" d="M300 407.5C339 407.5 370.7 375.9 370.7 336.9C370.7 297.9 339 266.2 300 266.2C261 266.2 229.3 297.8 229.3 336.8C229.3 375.8 261 407.5 300 407.5Z" fill="black"/>
</g>
<g id="fuel-gauge">
<path id="Vector_15" d="M300 461C277.1 461 254.6 454.7 235 442.6L223.5 454.1C246.3 469 272.9 476.9 300.1 476.9C327.3 476.9 353.9 469 376.6 454.1L365.1 442.6C345.5 454.7 323 461.1 300 461Z" fill="black"/>
</g>
<g id="meter-gauge">
<path id="Vector_16" d="M114.1 519.9L117.7 523.5L301.8 338.7L298.2 335.1L114.1 519.9Z" fill="black"/>
</g>
<g id="small-gauge">
<path id="Vector_17" d="M318.7 99.5L319.9 84.4" stroke="black" stroke-width="3" stroke-miterlimit="10"/>
<path id="Vector_18" d="M337.3 101.7L339.7 86.7" stroke="black" stroke-width="3" stroke-miterlimit="10"/>
<path id="Vector_19" d="M355.6 105.4L359.1 90.6" stroke="black" stroke-width="3" stroke-miterlimit="10"/>
<path id="Vector_20" d="M373.6 110.4L378.3 96" stroke="black" stroke-width="3" stroke-miterlimit="10"/>
<path id="Vector_21" d="M408.2 124.7L415.1 111.2" stroke="black" stroke-width="3" stroke-miterlimit="10"/>
<path id="Vector_22" d="M424.5 133.9L432.4 120.9" stroke="black" stroke-width="3" stroke-miterlimit="10"/>
<path id="Vector_23" d="M440 144.3L449 132" stroke="black" stroke-width="3" stroke-miterlimit="10"/>
<path id="Vector_24" d="M454.7 155.8L464.6 144.2" stroke="black" stroke-width="3" stroke-miterlimit="10"/>
<path id="Vector_25" d="M107.3 501.4L118.9 491.5" stroke="black" stroke-width="3" stroke-miterlimit="10"/>
<path id="Vector_26" d="M481.2 182.2L492.8 172.3" stroke="black" stroke-width="3" stroke-miterlimit="10"/>
<path id="Vector_27" d="M94.9999 485.7L107.3 476.8" stroke="black" stroke-width="3" stroke-miterlimit="10"/>
<path id="Vector_28" d="M492.7 196.9L505 188" stroke="black" stroke-width="3" stroke-miterlimit="10"/>
<path id="Vector_29" d="M83.9999 469.2L96.9999 461.3" stroke="black" stroke-width="3" stroke-miterlimit="10"/>
<path id="Vector_30" d="M503.1 212.5L516.1 204.6" stroke="black" stroke-width="3" stroke-miterlimit="10"/>
<path id="Vector_31" d="M74.2 451.9L87.7 445" stroke="black" stroke-width="3" stroke-miterlimit="10"/>
<path id="Vector_32" d="M512.3 228.8L525.8 221.9" stroke="black" stroke-width="3" stroke-miterlimit="10"/>
<path id="Vector_33" d="M58.9999 415.1L73.4999 410.4" stroke="black" stroke-width="3" stroke-miterlimit="10"/>
<path id="Vector_34" d="M526.6 263.3L541.1 258.6" stroke="black" stroke-width="3" stroke-miterlimit="10"/>
<path id="Vector_35" d="M53.5999 396L68.3999 392.5" stroke="black" stroke-width="3" stroke-miterlimit="10"/>
<path id="Vector_36" d="M531.6 281.3L546.4 277.8" stroke="black" stroke-width="3" stroke-miterlimit="10"/>
<path id="Vector_37" d="M49.7 376.5L64.6999 374.1" stroke="black" stroke-width="3" stroke-miterlimit="10"/>
<path id="Vector_38" d="M535.3 299.6L550.3 297.2" stroke="black" stroke-width="3" stroke-miterlimit="10"/>
<path id="Vector_39" d="M47.3999 356.7L62.5999 355.5" stroke="black" stroke-width="3" stroke-miterlimit="10"/>
<path id="Vector_40" d="M537.5 318.2L552.7 317" stroke="black" stroke-width="3" stroke-miterlimit="10"/>
<path id="Vector_41" d="M47.3999 317L62.5999 318.2" stroke="black" stroke-width="3" stroke-miterlimit="10"/>
<path id="Vector_42" d="M537.5 355.5L552.7 356.7" stroke="black" stroke-width="3" stroke-miterlimit="10"/>
<path id="Vector_43" d="M49.7 297.2L64.6999 299.6" stroke="black" stroke-width="3" stroke-miterlimit="10"/>
<path id="Vector_44" d="M535.3 374.1L550.3 376.5" stroke="black" stroke-width="3" stroke-miterlimit="10"/>
<path id="Vector_45" d="M53.5999 277.7L68.3999 281.2" stroke="black" stroke-width="3" stroke-miterlimit="10"/>
<path id="Vector_46" d="M531.6 392.4L546.4 395.9" stroke="black" stroke-width="3" stroke-miterlimit="10"/>
<path id="Vector_47" d="M58.9999 258.6L73.4999 263.3" stroke="black" stroke-width="3" stroke-miterlimit="10"/>
<path id="Vector_48" d="M526.6 410.4L541.1 415.1" stroke="black" stroke-width="3" stroke-miterlimit="10"/>
<path id="Vector_49" d="M74.2 221.9L87.7 228.8" stroke="black" stroke-width="3" stroke-miterlimit="10"/>
<path id="Vector_50" d="M512.3 445L525.8 451.9" stroke="black" stroke-width="3" stroke-miterlimit="10"/>
<path id="Vector_51" d="M83.9999 204.5L96.9999 212.4" stroke="black" stroke-width="3" stroke-miterlimit="10"/>
<path id="Vector_52" d="M503.1 461.3L516.1 469.2" stroke="black" stroke-width="3" stroke-miterlimit="10"/>
<path id="Vector_53" d="M94.9999 188L107.3 196.9" stroke="black" stroke-width="3" stroke-miterlimit="10"/>
<path id="Vector_54" d="M492.7 476.8L505 485.7" stroke="black" stroke-width="3" stroke-miterlimit="10"/>
<path id="Vector_55" d="M107.3 172.4L118.9 182.3" stroke="black" stroke-width="3" stroke-miterlimit="10"/>
<path id="Vector_56" d="M481.2 491.5L492.8 501.4" stroke="black" stroke-width="3" stroke-miterlimit="10"/>
<path id="Vector_57" d="M135.5 144.3L145.4 155.9" stroke="black" stroke-width="3" stroke-miterlimit="10"/>
<path id="Vector_58" d="M151.1 132L160 144.3" stroke="black" stroke-width="3" stroke-miterlimit="10"/>
<path id="Vector_59" d="M167.6 120.9L175.5 133.9" stroke="black" stroke-width="3" stroke-miterlimit="10"/>
<path id="Vector_60" d="M185 111.2L191.9 124.7" stroke="black" stroke-width="3" stroke-miterlimit="10"/>
<path id="Vector_61" d="M221.7 96L226.4 110.4" stroke="black" stroke-width="3" stroke-miterlimit="10"/>
<path id="Vector_62" d="M240.9 90.6L244.4 105.4" stroke="black" stroke-width="3" stroke-miterlimit="10"/>
<path id="Vector_63" d="M260.4 86.7L262.8 101.7" stroke="black" stroke-width="3" stroke-miterlimit="10"/>
<path id="Vector_64" d="M280.1 84.4L281.3 99.5" stroke="black" stroke-width="3" stroke-miterlimit="10"/>
</g>
<g id="outer-border">
<path id="Vector_65" d="M42.8 336.9C42.8 195.1 158.2 79.8 300 79.8C441.8 79.8 557.2 195.1 557.2 336.9C557.2 371.1 550.4 404.9 537.2 436.3C524 467.7 504.5 496.3 480.1 520.2L482.9 523C483.5 522.5 484 521.9 484.6 521.4C521.1 484.9 546 438.4 556 387.8C566.1 337.2 560.9 284.7 541.1 237.1C521.3 189.4 487.9 148.7 445 120C402.1 91.3 351.6 76 300 76C248.4 76 197.9 91.3 155 120C112.1 148.7 78.6 189.4 58.9 237.1C39.2 284.8 33.9 337.2 44 387.8C54.1 438.4 78.9 484.9 115.4 521.4C116 522 116.5 522.5 117.1 523.1L119.9 520.3C95.5 496.4 76.0999 467.9 62.7999 436.4C49.4999 404.9 42.8 371 42.8 336.9Z" fill="black"/>
</g>
<g id="fuelIcon">
<path id="Vector_66" d="M309.1 415.8L291.4 433.5V436.7H299.4L290.8 453.8L307.9 436.7V433.5H300.1L309.1 415.8Z" fill="black"/>
</g>
</g>
</g>
</svg>
